<svg viewBox="0 0 52 52" fill="none" xmlns="http://www.w3.org/2000/svg">
  <path d="M32.3275 0.788565C32.3038 0.782337 32.2802 0.776108 32.2565 0.769879C30.1549 0.249152 28.0533 0 25.9816 0H25.9717C14.3101 0.00498304 3.7037 7.91307 0.769936 19.7428C-2.68456 33.6779 5.81028 47.7749 19.7429 51.2294C21.8444 51.7501 23.9473 51.9992 26.0202 51.9992C37.6855 51.9992 48.2957 44.0887 51.2294 32.2564C54.6789 18.3513 46.224 4.27669 32.3275 0.788565ZM49.1889 31.7519C46.5391 42.4356 37.0116 49.8976 26.0202 49.8976C24.0868 49.8976 22.1447 49.6597 20.2499 49.1888C14.056 47.6528 8.83125 43.7972 5.53746 38.3308C2.24367 32.8644 1.27571 26.4437 2.81174 20.2498C5.46022 9.56868 14.999 2.10782 25.9878 2.10284C27.9175 2.10284 29.8572 2.34203 31.7669 2.81542L31.7906 2.82165L31.8155 2.82787C44.5584 6.02574 52.3519 19.0003 49.1889 31.7519Z" fill="url(#paint0_linear_11009_39131)"/>
  <path d="M31.4194 22.519C30.6731 25.5051 26.1199 23.974 24.6412 23.609L25.9467 18.3843C27.4018 18.7431 32.1656 19.4295 31.3957 22.519H31.4194ZM30.6059 30.9628C29.7999 34.2167 24.321 32.4564 22.5446 32.0142L23.9847 26.2438C25.7611 26.6923 31.4492 27.5656 30.6059 30.9628ZM36.5768 22.5638C37.0477 19.3834 34.6284 17.6742 31.3521 16.5406L32.4272 12.234L29.7774 11.5775L28.7322 15.7732C28.0458 15.6013 27.337 15.4369 26.6344 15.2799L27.6796 11.0393L25.0597 10.3828L23.9847 14.6894L22.3128 14.3169L18.6927 13.4137L17.9988 16.213C17.9988 16.213 19.8076 16.6552 19.9023 16.6913C20.4878 16.8097 21.1842 17.44 21.1269 18.185L18.1856 29.9799C18.0249 30.4831 17.488 30.7597 16.9847 30.599C16.9287 30.584 15.0737 30.1281 15.0737 30.1281L13.7744 33.1142L17.1853 33.9576L19.0515 34.4434L17.9689 38.7948L20.5887 39.4514L21.6638 35.1448C22.3702 35.3391 23.0653 35.5173 23.7467 35.6817L22.6866 40.0045L25.3064 40.6535L26.389 36.3096C30.8675 37.1542 34.2198 36.8166 35.6375 32.7716C36.7799 29.5164 35.5777 27.6428 33.2269 26.4182C34.9436 26.0221 36.213 24.9246 36.578 22.5663L36.5768 22.5638Z" fill="currentColor"/>
  <defs>
    <linearGradient id="paint0_linear_11009_39131" x1="9.96623" y1="46.4679" x2="42.0341" y2="5.53336" gradientUnits="userSpaceOnUse">
      <stop stop-color="#F6AF1B"/>
      <stop offset="1" stop-color="#E75924"/>
    </linearGradient>
  </defs>
</svg>
