<svg width="34" height="34" viewBox="0 0 34 34" fill="none" xmlns="http://www.w3.org/2000/svg">
  <path d="M23.8771 21.9179C24.0927 21.0242 24.1026 20.0828 23.9044 19.1831C23.668 18.1088 23.143 17.1262 22.3865 16.3413L20.713 14.6053C20.4035 14.2845 19.9921 14.1071 19.5537 14.1056H19.5495C19.1139 14.1056 18.7035 14.2802 18.3941 14.5971L17.7325 15.2734C17.6712 15.3361 17.5724 15.3359 17.5113 15.273L15.629 13.3345C15.2267 12.9202 14.5723 12.9202 14.1702 13.3345C13.9751 13.5354 13.8677 13.8025 13.8677 14.0867C13.8677 14.3708 13.9751 14.638 14.1702 14.8388L16.0469 16.7718C16.1085 16.8352 16.1084 16.9381 16.0467 17.0013L14.8449 18.2334C14.7836 18.2962 14.6846 18.2961 14.6235 18.2332L12.7401 16.2935C12.3378 15.8793 11.6834 15.8793 11.2813 16.2935C11.0862 16.4945 10.9788 16.7615 10.9788 17.0457C10.9788 17.3299 11.0862 17.5971 11.2813 17.7979L13.1591 19.7319C13.2207 19.7954 13.2205 19.8985 13.1586 19.9617L12.6103 20.5218C12.2992 20.8407 12.1271 21.2646 12.1257 21.7155C12.1243 22.1663 12.2939 22.5914 12.6031 22.9122L14.2764 24.6481C15.0428 25.4432 16.0063 25.9936 17.0625 26.2401C17.948 26.4467 18.8737 26.4328 19.7519 26.2008L22.5606 29.0954C23.0153 29.5642 23.6215 29.8223 24.2673 29.8223C24.9131 29.8223 25.5157 29.5655 25.9701 29.0991L26.7006 28.3495C27.1579 27.8804 27.4101 27.2558 27.4105 26.5912C27.4115 25.9266 27.1606 25.3014 26.7042 24.8309L23.8771 21.9179ZM22.1353 23.1308L25.2449 26.3355C25.3118 26.4043 25.3471 26.4922 25.3469 26.5891C25.3467 26.6851 25.3103 26.7753 25.2445 26.8428L24.514 27.5923C24.3776 27.7322 24.1561 27.7319 24.02 27.5916L20.9265 24.4038C20.6652 24.1341 20.3176 23.9858 19.948 23.9858C19.7949 23.9858 19.6427 24.0117 19.4955 24.0627C18.8587 24.2834 18.1749 24.3191 17.5182 24.166C16.8451 24.009 16.2302 23.6574 15.7405 23.1494L14.6433 22.011C14.4902 21.8522 14.4912 21.5953 14.6454 21.4377L15.4584 20.6072L15.9785 20.0715L17.9322 18.0685L18.3467 17.6415L19.2694 16.6984C19.423 16.5413 19.6709 16.5422 19.8234 16.7005L20.9223 17.8405C21.4055 18.3418 21.7408 18.969 21.8918 19.654C22.0389 20.3215 22.0074 21.0178 21.8009 21.6677C21.6359 22.1873 21.7639 22.7481 22.1353 23.1308Z" fill="currentColor"/>
  <path d="M20.0482 29.0244C19.6831 28.6476 19.0884 28.647 18.7223 29.0228C17.8374 29.9316 16.4012 29.9282 15.5206 29.0152L4.88966 17.9898C4.00901 17.0763 4.0123 15.5936 4.89719 14.6845L12.6994 6.66124C13.1268 6.22223 13.6937 5.98062 14.2965 5.98062C14.2982 5.98062 14.3001 5.98062 14.3018 5.98062C14.9065 5.98208 15.4744 6.2266 15.9015 6.66933L25.2451 16.3209C25.4385 16.5207 25.6957 16.6308 25.9695 16.631C26.2431 16.631 26.5007 16.521 26.6942 16.3215C27.092 15.9112 27.0935 15.2422 26.6973 14.8303L17.205 4.95346L17.1902 4.93905C16.3592 4.17989 15.2887 3.77894 14.1761 3.81051C13.0586 3.84209 12.0066 4.30798 11.2138 5.12252L3.41139 13.146C2.58456 13.9955 2.12768 15.1266 2.12501 16.3306C2.12234 17.5346 2.57405 18.6677 3.39696 19.5212L14.028 30.5465C14.8514 31.4004 15.9478 31.8722 17.1151 31.875H17.1256C18.2888 31.875 19.3833 31.4088 20.2081 30.5614C20.386 30.3785 20.4841 30.1353 20.4844 29.8762C20.4847 29.6171 20.3871 29.3736 20.2095 29.1903L20.0482 29.0244Z" fill="currentColor"/>
  <path d="M31.6092 15.323L27.9796 4.28018L27.973 4.25702L27.9441 4.19225C27.703 3.64814 27.3496 3.19261 26.8938 2.8383C26.4666 2.50617 25.9598 2.27881 25.4284 2.18068C24.8972 2.08254 24.3459 2.11461 23.8341 2.27314C23.2876 2.44236 22.803 2.74357 22.3933 3.16832L20.8758 4.74186C20.6799 4.94492 20.5711 5.21471 20.5694 5.50117C20.5677 5.78764 20.6734 6.05856 20.8669 6.26422C21.0652 6.47489 21.331 6.59181 21.6156 6.59359C21.6178 6.59359 21.62 6.59359 21.6222 6.59359C21.9043 6.59359 22.1691 6.48008 22.3682 6.27361L23.8857 4.70008C24.1967 4.3775 24.6239 4.2384 25.0579 4.31855C25.4848 4.39742 25.8342 4.67239 26.0199 5.0748L29.63 16.0619L29.6338 16.0751L29.6385 16.0879C29.7254 16.3219 29.7695 16.5675 29.7695 16.8182C29.7695 17.3644 29.5628 17.8776 29.1877 18.263L26.7011 20.8182C26.5017 21.023 26.3917 21.2959 26.3914 21.5862C26.391 21.8766 26.5004 22.1496 26.6995 22.3551C26.9047 22.5668 27.1743 22.6727 27.4441 22.6727C27.714 22.6727 27.9821 22.5674 28.187 22.3567L30.6737 19.8017C31.0563 19.4084 31.3555 18.948 31.5626 18.4335C31.7699 17.9189 31.875 17.3754 31.875 16.8182C31.875 16.3053 31.7857 15.8024 31.6092 15.323Z" fill="currentColor"/>
</svg>
