<svg viewBox="0 0 14 14" fill="none" xmlns="http://www.w3.org/2000/svg">
<path d="M10.2363 9.31429C10.3377 8.89372 10.3424 8.45074 10.2491 8.02734C10.1379 7.5218 9.89082 7.05938 9.5348 6.69002L8.7473 5.8731C8.60162 5.72213 8.40803 5.63861 8.20174 5.63793H8.19975C7.99479 5.63793 7.80164 5.72008 7.65604 5.86921L7.34471 6.18748C7.31586 6.21697 7.26935 6.21688 7.24061 6.18728L6.35481 5.27504C6.1655 5.08011 5.85755 5.08011 5.66831 5.27504C5.57654 5.36961 5.52596 5.49527 5.52596 5.62901C5.52596 5.76275 5.57654 5.88849 5.66831 5.98298L6.5515 6.89261C6.58046 6.92243 6.5804 6.97087 6.55138 7.00062L5.98582 7.58043C5.95698 7.61 5.91041 7.60994 5.88164 7.58031L4.99533 6.66754C4.80602 6.4726 4.49806 6.4726 4.30883 6.66754C4.21705 6.76211 4.16648 6.88777 4.16648 7.02151C4.16648 7.15525 4.21705 7.28099 4.30883 7.37548L5.19251 8.28562C5.2215 8.31548 5.22141 8.36399 5.1923 8.39372L4.93427 8.65733C4.78785 8.80738 4.70686 9.00688 4.70619 9.21904C4.70553 9.43119 4.78534 9.63123 4.93087 9.78219L5.7183 10.5991C6.07897 10.9733 6.53238 11.2323 7.02942 11.3483C7.44614 11.4455 7.88175 11.439 8.295 11.3298L9.61675 12.6919C9.83072 12.9126 10.116 13.034 10.4199 13.034C10.7238 13.034 11.0074 12.9132 11.2212 12.6937L11.565 12.3409C11.7802 12.1202 11.8989 11.8262 11.8991 11.5135C11.8995 11.2008 11.7815 10.9065 11.5667 10.6851L10.2363 9.31429ZM9.41659 9.88507L10.88 11.3932C10.9114 11.4256 10.928 11.4669 10.928 11.5125C10.9279 11.5577 10.9108 11.6001 10.8797 11.6319L10.536 11.9846C10.4718 12.0504 10.3676 12.0503 10.3035 11.9843L8.84778 10.4841C8.72478 10.3572 8.56124 10.2874 8.38729 10.2874C8.31523 10.2874 8.24361 10.2996 8.17435 10.3236C7.87466 10.4275 7.5529 10.4443 7.24383 10.3723C6.92709 10.2983 6.63774 10.1329 6.40731 9.89383L5.89096 9.3581C5.81894 9.28337 5.81939 9.16249 5.89197 9.08834L6.27456 8.69749L6.51931 8.4454L7.43868 7.50282L7.63375 7.30187L8.06794 6.85806C8.14026 6.78414 8.2569 6.78459 8.32868 6.85906L8.84579 7.39552C9.0732 7.63146 9.23098 7.9266 9.302 8.24895C9.37126 8.56306 9.35642 8.89075 9.25925 9.19656C9.18158 9.4411 9.24183 9.705 9.41659 9.88507Z" fill="currentColor"/>
<path d="M8.43447 12.6586C8.26266 12.4812 7.98276 12.4809 7.8105 12.6578C7.39408 13.0855 6.71822 13.0839 6.30379 12.6542L1.30102 7.46579C0.886592 7.03591 0.888143 6.33818 1.30456 5.91036L4.9762 2.1347C5.17732 1.92811 5.44408 1.81441 5.72775 1.81441C5.72856 1.81441 5.72945 1.81441 5.73026 1.81441C6.01481 1.81509 6.28209 1.93016 6.48306 2.13851L10.88 6.68041C10.9711 6.77445 11.0921 6.82627 11.2209 6.82635C11.3497 6.82635 11.4709 6.7746 11.562 6.68072C11.7492 6.48762 11.7499 6.17281 11.5634 5.97895L7.09646 1.33104L7.08952 1.32426C6.69843 0.967007 6.19467 0.778323 5.67112 0.793183C5.14521 0.808043 4.65016 1.02729 4.27708 1.4106L0.605362 5.18634C0.216262 5.58611 0.00126069 6.1184 5.52699e-06 6.68499C-0.00124963 7.25157 0.211316 7.78478 0.59857 8.18646L5.60142 13.3748C5.98889 13.7766 6.50484 13.9987 7.05416 14H7.05911C7.6065 14 8.12156 13.7806 8.5097 13.3818C8.59343 13.2958 8.63957 13.1813 8.63972 13.0594C8.63987 12.9375 8.59395 12.8229 8.51037 12.7366L8.43447 12.6586Z" fill="currentColor"/>
<path d="M13.8749 6.21084L12.1669 1.0142L12.1638 1.0033L12.1502 0.972821C12.0367 0.716772 11.8704 0.502406 11.6559 0.33567C11.4549 0.179373 11.2164 0.0723806 10.9663 0.0262003C10.7163 -0.0199801 10.4569 -0.00489145 10.216 0.0697134C9.95887 0.149348 9.73081 0.29109 9.53803 0.490976L8.82391 1.23146C8.7317 1.32702 8.68053 1.45398 8.67972 1.58879C8.67891 1.72359 8.72867 1.85109 8.81971 1.94787C8.91303 2.04701 9.0381 2.10203 9.17204 2.10287C9.17307 2.10287 9.1741 2.10287 9.17514 2.10287C9.30789 2.10287 9.43252 2.04945 9.52621 1.95229L10.2403 1.2118C10.3867 1.06 10.5877 0.99454 10.7919 1.03226C10.9928 1.06937 11.1573 1.19877 11.2447 1.38814L12.9435 6.55856L12.9453 6.56473L12.9475 6.57075C12.9884 6.68087 13.0092 6.79647 13.0092 6.91444C13.0092 7.17148 12.9119 7.41297 12.7354 7.59434L11.5652 8.79679C11.4714 8.89319 11.4196 9.02159 11.4195 9.15823C11.4193 9.29486 11.4708 9.42335 11.5645 9.52005C11.661 9.61965 11.7879 9.66949 11.9149 9.66949C12.0419 9.66949 12.1681 9.61996 12.2645 9.52081L13.4347 8.31845C13.6147 8.13334 13.7555 7.91669 13.853 7.67459C13.9505 7.43241 14 7.17666 14 6.91444C14 6.6731 13.958 6.4364 13.8749 6.21084Z" fill="currentColor"/>
</svg>
