<svg width="16" height="16" viewBox="0 0 16 16" fill="none" xmlns="http://www.w3.org/2000/svg">
<path d="M4.84209 15.3434C4.37702 15.3434 4.00156 14.9669 4.00156 14.5018V1.84264C4.00156 1.37757 4.37809 1.00104 4.84209 1.00104C5.30609 1.00104 5.68369 1.37757 5.68369 1.84264V14.5018C5.68369 14.9669 5.30716 15.3434 4.84209 15.3434Z" fill="black"/>
<path d="M4.84209 15.3434C4.52742 15.3434 4.22552 15.1664 4.08152 14.8624C3.88205 14.4432 4.06125 13.9408 4.48152 13.7413L9.55458 11.3349L4.34392 7.49598C3.97058 7.22078 3.89058 6.69384 4.16578 6.31944C4.44098 5.94504 4.96792 5.86611 5.34232 6.14131L11.6858 10.8144C11.9237 10.9904 12.0527 11.2784 12.0239 11.5728C11.9951 11.8672 11.8149 12.1253 11.5471 12.2522L5.20365 15.2624C5.08738 15.3168 4.96472 15.3434 4.84312 15.3434" fill="black"/>
<path d="M4.84317 10.3675C4.58504 10.3675 4.33011 10.2491 4.16477 10.0251C3.88957 9.65172 3.96851 9.12479 4.34291 8.84852L9.55357 5.00959L4.48157 2.60212C4.06131 2.40265 3.88317 1.90132 4.08157 1.48105C4.28104 1.06079 4.78237 0.882654 5.20264 1.08105L11.5461 4.09119C11.8138 4.21812 11.9941 4.47625 12.0229 4.77065C12.0517 5.06505 11.9226 5.35305 11.6848 5.52905L5.34131 10.2021C5.19091 10.3131 5.01597 10.3664 4.84317 10.3664V10.3675Z" fill="black"/>
<path d="M5.68259 6.3941V9.95144L8.09645 8.1733L5.68259 6.3941Z" fill="black"/>
<path d="M5.68265 4.90182H4.00052V9.00209H5.68265V4.90182Z" fill="black"/>
<path d="M5.68265 1.84264C5.68265 1.37757 5.30612 1.00104 4.84105 1.00104C4.37599 1.00104 4.00052 1.37757 4.00052 1.84264V12.4293H5.68265V1.84264Z" fill="black"/>
</svg>
