<svg width="16" height="16" viewBox="0 0 16 16" fill="none" xmlns="http://www.w3.org/2000/svg">
<path d="M12.3333 16L4.33333 16C3.44964 15.9988 2.60248 15.6473 1.97761 15.0224C1.35274 14.3975 1.00118 13.5504 1 12.6667L1 3.33333C1.00094 2.44957 1.35243 1.60227 1.97735 0.97735C2.60227 0.352433 3.44957 0.000941179 4.33333 0L12.3333 0C13.2171 0.000941179 14.0644 0.352433 14.6893 0.97735C15.3142 1.60227 15.6657 2.44957 15.6667 3.33333L15.6667 12.6667C15.6657 13.5504 15.3142 14.3977 14.6893 15.0226C14.0644 15.6476 13.2171 15.9991 12.3333 16ZM4.33333 1.33333C3.8029 1.33333 3.29419 1.54405 2.91912 1.91912C2.54405 2.29419 2.33333 2.8029 2.33333 3.33333L2.33333 12.6667C2.33333 13.1971 2.54405 13.7058 2.91912 14.0809C3.29419 14.456 3.8029 14.6667 4.33333 14.6667L12.3333 14.6667C12.8638 14.6667 13.3725 14.456 13.7475 14.0809C14.1226 13.7058 14.3333 13.1971 14.3333 12.6667L14.3333 3.33333C14.3333 2.8029 14.1226 2.29419 13.7475 1.91912C13.3725 1.54405 12.8638 1.33333 12.3333 1.33333L4.33333 1.33333ZM11 6.66667H5.66667C5.13623 6.66667 4.62753 6.45595 4.25245 6.08088C3.87738 5.70581 3.66667 5.1971 3.66667 4.66667C3.66667 4.13623 3.87738 3.62753 4.25245 3.25245C4.62753 2.87738 5.13623 2.66667 5.66667 2.66667L11 2.66667C11.5304 2.66667 12.0391 2.87738 12.4142 3.25245C12.7893 3.62753 13 4.13623 13 4.66667C13 5.1971 12.7893 5.70581 12.4142 6.08088C12.0391 6.45595 11.5304 6.66667 11 6.66667ZM5.66667 4C5.48986 4 5.32029 4.07024 5.19526 4.19526C5.07024 4.32029 5 4.48986 5 4.66667C5 4.84348 5.07024 5.01305 5.19526 5.13807C5.32029 5.2631 5.48986 5.33333 5.66667 5.33333H11C11.1768 5.33333 11.3464 5.2631 11.4714 5.13807C11.5964 5.01305 11.6667 4.84348 11.6667 4.66667C11.6667 4.48986 11.5964 4.32029 11.4714 4.19526C11.3464 4.07024 11.1768 4 11 4L5.66667 4ZM4.33333 8.66667C4.15652 8.66667 3.98695 8.73691 3.86193 8.86193C3.7369 8.98695 3.66667 9.15652 3.66667 9.33333C3.66667 9.51014 3.7369 9.67971 3.86193 9.80474C3.98695 9.92976 4.15652 10 4.33333 10C4.51014 10 4.67971 9.92976 4.80474 9.80474C4.92976 9.67971 5 9.51014 5 9.33333C5 9.15652 4.92976 8.98695 4.80474 8.86193C4.67971 8.73691 4.51014 8.66667 4.33333 8.66667ZM7 8.66667C6.82319 8.66667 6.65362 8.73691 6.52859 8.86193C6.40357 8.98695 6.33333 9.15652 6.33333 9.33333C6.33333 9.51014 6.40357 9.67971 6.52859 9.80474C6.65362 9.92976 6.82319 10 7 10C7.17681 10 7.34638 9.92976 7.4714 9.80474C7.59643 9.67971 7.66667 9.51014 7.66667 9.33333C7.66667 9.15652 7.59643 8.98695 7.4714 8.86193C7.34638 8.73691 7.17681 8.66667 7 8.66667ZM9.66667 8.66667C9.48985 8.66667 9.32029 8.73691 9.19526 8.86193C9.07024 8.98695 9 9.15652 9 9.33333C9 9.51014 9.07024 9.67971 9.19526 9.80474C9.32029 9.92976 9.48985 10 9.66667 10C9.84348 10 10.013 9.92976 10.1381 9.80474C10.2631 9.67971 10.3333 9.51014 10.3333 9.33333C10.3333 9.15652 10.2631 8.98695 10.1381 8.86193C10.013 8.73691 9.84348 8.66667 9.66667 8.66667ZM4.33333 11.3333C4.15652 11.3333 3.98695 11.4036 3.86193 11.5286C3.7369 11.6536 3.66667 11.8232 3.66667 12C3.66667 12.1768 3.7369 12.3464 3.86193 12.4714C3.98695 12.5964 4.15652 12.6667 4.33333 12.6667C4.51014 12.6667 4.67971 12.5964 4.80474 12.4714C4.92976 12.3464 5 12.1768 5 12C5 11.8232 4.92976 11.6536 4.80474 11.5286C4.67971 11.4036 4.51014 11.3333 4.33333 11.3333ZM7 11.3333C6.82319 11.3333 6.65362 11.4036 6.52859 11.5286C6.40357 11.6536 6.33333 11.8232 6.33333 12C6.33333 12.1768 6.40357 12.3464 6.52859 12.4714C6.65362 12.5964 6.82319 12.6667 7 12.6667C7.17681 12.6667 7.34638 12.5964 7.4714 12.4714C7.59643 12.3464 7.66667 12.1768 7.66667 12C7.66667 11.8232 7.59643 11.6536 7.4714 11.5286C7.34638 11.4036 7.17681 11.3333 7 11.3333ZM12.3333 8.66667C12.1565 8.66667 11.987 8.73691 11.8619 8.86193C11.7369 8.98695 11.6667 9.15652 11.6667 9.33333C11.6667 9.51014 11.7369 9.67971 11.8619 9.80474C11.987 9.92976 12.1565 10 12.3333 10C12.5101 10 12.6797 9.92976 12.8047 9.80474C12.9298 9.67971 13 9.51014 13 9.33333C13 9.15652 12.9298 8.98695 12.8047 8.86193C12.6797 8.73691 12.5101 8.66667 12.3333 8.66667ZM13 12C13 11.8232 12.9298 11.6536 12.8047 11.5286C12.6797 11.4036 12.5101 11.3333 12.3333 11.3333H9.66667C9.48985 11.3333 9.32029 11.4036 9.19526 11.5286C9.07024 11.6536 9 11.8232 9 12C9 12.1768 9.07024 12.3464 9.19526 12.4714C9.32029 12.5964 9.48985 12.6667 9.66667 12.6667H12.3333C12.5101 12.6667 12.6797 12.5964 12.8047 12.4714C12.9298 12.3464 13 12.1768 13 12Z" fill="black"/>
</svg>
