<svg width="16" height="16" viewBox="0 0 16 16" fill="none" xmlns="http://www.w3.org/2000/svg">
<path d="M11.9167 15L4.91667 15C4.14343 14.999 3.40217 14.6913 2.85541 14.1446C2.30865 13.5978 2.00103 12.8566 2 12.0833L2 3.91667C2.00082 3.14337 2.30838 2.40198 2.85518 1.85518C3.40198 1.30838 4.14337 1.00082 4.91667 1L11.9167 1C12.69 1.00082 13.4313 1.30838 13.9782 1.85518C14.525 2.40198 14.8325 3.14337 14.8333 3.91667L14.8333 12.0833C14.8325 12.8566 14.525 13.598 13.9782 14.1448C13.4313 14.6916 12.69 14.9992 11.9167 15ZM4.91667 2.16667C4.45254 2.16667 4.00742 2.35104 3.67923 2.67923C3.35104 3.00742 3.16667 3.45254 3.16667 3.91667L3.16667 12.0833C3.16667 12.5475 3.35104 12.9926 3.67923 13.3208C4.00742 13.649 4.45254 13.8333 4.91667 13.8333L11.9167 13.8333C12.3808 13.8333 12.8259 13.649 13.1541 13.3208C13.4823 12.9926 13.6667 12.5475 13.6667 12.0833L13.6667 3.91667C13.6667 3.45254 13.4823 3.00742 13.1541 2.67923C12.8259 2.35104 12.3808 2.16667 11.9167 2.16667L4.91667 2.16667ZM10.75 6.83333H6.08333C5.6192 6.83333 5.17409 6.64896 4.8459 6.32077C4.51771 5.99258 4.33333 5.54746 4.33333 5.08333C4.33333 4.6192 4.51771 4.17409 4.8459 3.8459C5.17409 3.51771 5.6192 3.33333 6.08333 3.33333L10.75 3.33333C11.2141 3.33333 11.6592 3.51771 11.9874 3.8459C12.3156 4.17409 12.5 4.6192 12.5 5.08333C12.5 5.54746 12.3156 5.99258 11.9874 6.32077C11.6592 6.64896 11.2141 6.83333 10.75 6.83333ZM6.08333 4.5C5.92862 4.5 5.78025 4.56146 5.67085 4.67085C5.56146 4.78025 5.5 4.92862 5.5 5.08333C5.5 5.23804 5.56146 5.38642 5.67085 5.49581C5.78025 5.60521 5.92862 5.66667 6.08333 5.66667H10.75C10.9047 5.66667 11.0531 5.60521 11.1625 5.49581C11.2719 5.38642 11.3333 5.23804 11.3333 5.08333C11.3333 4.92862 11.2719 4.78025 11.1625 4.67085C11.0531 4.56146 10.9047 4.5 10.75 4.5L6.08333 4.5Z" fill="black"/>
<path d="M6.6667 9.7C6.6667 10.0866 6.2936 10.4 5.83336 10.4C5.37313 10.4 5.00003 10.0866 5.00003 9.7C5.00003 9.3134 5.37313 9 5.83336 9C6.2936 9 6.6667 9.3134 6.6667 9.7Z" fill="black"/>
<path d="M9.33336 9.7C9.33336 10.0866 8.96027 10.4 8.50003 10.4C8.03979 10.4 7.6667 10.0866 7.6667 9.7C7.6667 9.3134 8.03979 9 8.50003 9C8.96027 9 9.33336 9.3134 9.33336 9.7Z" fill="black"/>
<path d="M12 9.7C12 10.0866 11.6269 10.4 11.1667 10.4C10.7065 10.4 10.3334 10.0866 10.3334 9.7C10.3334 9.3134 10.7065 9 11.1667 9C11.6269 9 12 9.3134 12 9.7Z" fill="black"/>
<path d="M6.6667 11.9C6.6667 12.2866 6.2936 12.6 5.83336 12.6C5.37313 12.6 5.00003 12.2866 5.00003 11.9C5.00003 11.5134 5.37313 11.2 5.83336 11.2C6.2936 11.2 6.6667 11.5134 6.6667 11.9Z" fill="black"/>
<path d="M9.33336 11.9C9.33336 12.2866 8.96027 12.6 8.50003 12.6C8.03979 12.6 7.6667 12.2866 7.6667 11.9C7.6667 11.5134 8.03979 11.2 8.50003 11.2C8.96027 11.2 9.33336 11.5134 9.33336 11.9Z" fill="black"/>
<path d="M12 11.9C12 12.2866 11.6269 12.6 11.1667 12.6C10.7065 12.6 10.3334 12.2866 10.3334 11.9C10.3334 11.5134 10.7065 11.2 11.1667 11.2C11.6269 11.2 12 11.5134 12 11.9Z" fill="black"/>
</svg>
