<svg viewBox="0 0 32 32" fill="none" xmlns="http://www.w3.org/2000/svg">
<path d="M16 2C13.2311 2 10.5243 2.82109 8.22202 4.35943C5.91973 5.89776 4.12532 8.08427 3.06569 10.6424C2.00607 13.2006 1.72882 16.0155 2.26901 18.7313C2.80921 21.447 4.14258 23.9416 6.10051 25.8995C8.05845 27.8574 10.553 29.1908 13.2687 29.731C15.9845 30.2712 18.7994 29.9939 21.3576 28.9343C23.9157 27.8747 26.1022 26.0803 27.6406 23.778C29.1789 21.4757 30 18.7689 30 16C29.9961 12.2882 28.5198 8.72949 25.8952 6.10483C23.2705 3.48017 19.7118 2.00392 16 2ZM16 27.8462C13.6571 27.8462 11.3667 27.1514 9.41863 25.8497C7.47055 24.548 5.95219 22.6979 5.05559 20.5333C4.15898 18.3687 3.92439 15.9869 4.38147 13.6889C4.83856 11.391 5.9668 9.28022 7.62351 7.6235C9.28022 5.96679 11.391 4.83855 13.6889 4.38147C15.9869 3.92438 18.3687 4.15897 20.5333 5.05558C22.6979 5.95219 24.548 7.47054 25.8497 9.41863C27.1514 11.3667 27.8462 13.6571 27.8462 16C27.8426 19.1407 26.5934 22.1517 24.3726 24.3726C22.1518 26.5934 19.1407 27.8426 16 27.8462ZM22.1465 17.3919C22.2466 17.492 22.326 17.6108 22.3801 17.7415C22.4343 17.8722 22.4621 18.0123 22.4621 18.1538C22.4621 18.2953 22.4343 18.4355 22.3801 18.5662C22.326 18.6969 22.2466 18.8157 22.1465 18.9158C22.0465 19.0158 21.9277 19.0952 21.797 19.1493C21.6662 19.2035 21.5261 19.2314 21.3846 19.2314C21.2431 19.2314 21.103 19.2035 20.9723 19.1493C20.8415 19.0952 20.7228 19.0158 20.6227 18.9158L16 14.2917L11.3773 18.9158C11.2773 19.0158 11.1585 19.0952 11.0277 19.1493C10.897 19.2035 10.7569 19.2314 10.6154 19.2314C10.4739 19.2314 10.3338 19.2035 10.203 19.1493C10.0723 19.0952 9.95352 19.0158 9.85347 18.9158C9.75341 18.8157 9.67404 18.6969 9.61989 18.5662C9.56574 18.4355 9.53787 18.2953 9.53787 18.1538C9.53787 18.0123 9.56574 17.8722 9.61989 17.7415C9.67404 17.6108 9.75341 17.492 9.85347 17.3919L15.2381 12.0073C15.3381 11.9072 15.4569 11.8277 15.5876 11.7736C15.7183 11.7194 15.8585 11.6915 16 11.6915C16.1415 11.6915 16.2817 11.7194 16.4124 11.7736C16.5431 11.8277 16.6619 11.9072 16.7619 12.0073L22.1465 17.3919Z" fill="currentColor"/>
</svg>
