<svg viewBox="0 0 34 34" fill="none" xmlns="http://www.w3.org/2000/svg">
<path d="M7.72378 9.31885C9.00477 6.16082 12.2134 3.17358 17 3.17358C22.1499 3.17358 26.5391 6.67757 27.5014 12.3479C28.8602 12.5513 30.2829 13.0717 31.4544 13.9419C32.9104 15.0235 34 16.6715 34 18.872C34 21.0056 33.1017 22.703 31.6392 23.8408C30.2057 24.9561 28.2977 25.4861 26.2969 25.4861H21.25C20.6632 25.4861 20.1875 25.0104 20.1875 24.4236C20.1875 23.8368 20.6632 23.3611 21.25 23.3611H26.2969C27.9484 23.3611 29.3607 22.9212 30.3344 22.1636C31.2792 21.4286 31.875 20.3503 31.875 18.872C31.875 17.4607 31.2048 16.4037 30.1872 15.6478C29.1434 14.8724 27.76 14.4436 26.5099 14.3817C25.9866 14.3557 25.5602 13.9521 25.5058 13.4309C24.9704 8.30906 21.2892 5.29858 17 5.29858C12.9498 5.29858 10.3602 7.97051 9.51176 10.6167C9.382 11.0214 9.02357 11.3099 8.60048 11.3501C4.93914 11.6979 2.125 13.952 2.125 17.358C2.125 20.7821 5.08375 23.3611 9.03125 23.3611H12.75C13.3368 23.3611 13.8125 23.8368 13.8125 24.4236C13.8125 25.0104 13.3368 25.4861 12.75 25.4861H9.03125C4.21313 25.4861 0 22.2373 0 17.358C0 12.7175 3.67392 9.94513 7.72378 9.31885Z" fill="currentColor"/>
<path d="M17.7513 11.9848L22.0013 16.2348C22.4162 16.6497 22.4162 17.3225 22.0013 17.7374C21.5864 18.1523 20.9136 18.1523 20.4987 17.7374L18.0625 15.3012V29.764C18.0625 30.3508 17.5868 30.8265 17 30.8265C16.4132 30.8265 15.9375 30.3508 15.9375 29.764V15.3012L13.5013 17.7374C13.0864 18.1523 12.4136 18.1523 11.9987 17.7374C11.5838 17.3225 11.5838 16.6497 11.9987 16.2348L16.2487 11.9848C16.6636 11.5699 17.3364 11.5699 17.7513 11.9848Z" fill="currentColor"/>
</svg>
