<svg width="11" height="14" viewBox="0 0 11 14" fill="none" xmlns="http://www.w3.org/2000/svg">
<path fill-rule="evenodd" clip-rule="evenodd" d="M2 1C1.73478 1 1.48043 1.10536 1.29289 1.29289C1.10536 1.48043 1 1.73478 1 2L1 12C1 12.2652 1.10536 12.5196 1.29289 12.7071C1.48043 12.8946 1.73478 13 2 13L9 13C9.26522 13 9.51957 12.8946 9.70711 12.7071C9.89464 12.5196 10 12.2652 10 12L10 6H6.5C6.10217 6 5.72064 5.84196 5.43934 5.56066C5.15804 5.27936 5 4.89783 5 4.5L5 1L2 1ZM6 1.70711L9.29289 5H6.5C6.36739 5 6.24022 4.94732 6.14645 4.85355C6.05268 4.75978 6 4.63261 6 4.5L6 1.70711ZM0.585786 0.585786C0.960859 0.210714 1.46957 0 2 0L5.08601 0C5.4837 6.00815e-05 5.86509 0.158044 6.14633 0.439219L6.14637 0.439259L10.5608 4.85367C10.842 5.13491 10.9999 5.5163 11 5.91399L11 12C11 12.5304 10.7893 13.0391 10.4142 13.4142C10.0391 13.7893 9.53043 14 9 14L2 14C1.46957 14 0.960859 13.7893 0.585786 13.4142C0.210714 13.0391 0 12.5304 0 12L0 2C0 1.46957 0.210714 0.960859 0.585786 0.585786ZM2.5 8C2.5 7.72386 2.72386 7.5 3 7.5L8 7.5C8.27614 7.5 8.5 7.72386 8.5 8C8.5 8.27614 8.27614 8.5 8 8.5L3 8.5C2.72386 8.5 2.5 8.27614 2.5 8ZM2.5 10.5C2.5 10.2239 2.72386 10 3 10L8 10C8.27614 10 8.5 10.2239 8.5 10.5C8.5 10.7761 8.27614 11 8 11L3 11C2.72386 11 2.5 10.7761 2.5 10.5Z" fill="black"/>
</svg>
