<svg width="22" height="28" viewBox="0 0 22 28" fill="none" xmlns="http://www.w3.org/2000/svg">
<path fill-rule="evenodd" clip-rule="evenodd" d="M4 2C3.46957 2 2.96086 2.21071 2.58579 2.58579C2.21071 2.96086 2 3.46957 2 4V24C2 24.5304 2.21071 25.0391 2.58579 25.4142C2.96086 25.7893 3.46957 26 4 26H18C18.5304 26 19.0391 25.7893 19.4142 25.4142C19.7893 25.0391 20 24.5304 20 24V12H13C12.2043 12 11.4413 11.6839 10.8787 11.1213C10.3161 10.5587 10 9.79565 10 9V2H4ZM12 3.41421L18.5858 10H13C12.7348 10 12.4804 9.89464 12.2929 9.70711C12.1054 9.51957 12 9.26522 12 9V3.41421ZM1.17157 1.17157C1.92172 0.421427 2.93913 0 4 0H10.172C10.9674 0.000120163 11.7302 0.316088 12.2927 0.878437L12.2927 0.878518L21.1216 9.70735C21.6839 10.2698 21.9999 11.0326 22 11.828V24C22 25.0609 21.5786 26.0783 20.8284 26.8284C20.0783 27.5786 19.0609 28 18 28H4C2.93913 28 1.92172 27.5786 1.17157 26.8284C0.421427 26.0783 0 25.0609 0 24V4C0 2.93913 0.421427 1.92172 1.17157 1.17157ZM5 16C5 15.4477 5.44772 15 6 15H16C16.5523 15 17 15.4477 17 16C17 16.5523 16.5523 17 16 17H6C5.44772 17 5 16.5523 5 16ZM5 21C5 20.4477 5.44772 20 6 20H16C16.5523 20 17 20.4477 17 21C17 21.5523 16.5523 22 16 22H6C5.44772 22 5 21.5523 5 21Z" fill="#00A700"/>
</svg>
