<svg width="16" height="16" viewBox="0 0 16 16" fill="none" xmlns="http://www.w3.org/2000/svg">
<path d="M7.58728 10.1627C7.64146 10.2169 7.70579 10.26 7.77661 10.2893C7.84742 10.3187 7.92333 10.3338 7.99999 10.3338C8.07665 10.3338 8.15255 10.3187 8.22337 10.2893C8.29419 10.26 8.35852 10.2169 8.4127 10.1627L11.3294 7.24604C11.3836 7.19184 11.4266 7.1275 11.4559 7.05669C11.4852 6.98588 11.5003 6.90998 11.5003 6.83333C11.5003 6.75669 11.4852 6.68079 11.4559 6.60998C11.4266 6.53916 11.3836 6.47482 11.3294 6.42062C11.2752 6.36643 11.2108 6.32344 11.14 6.2941C11.0692 6.26477 10.9933 6.24968 10.9167 6.24968C10.84 6.24968 10.7641 6.26477 10.6933 6.2941C10.6225 6.32344 10.5581 6.36643 10.5039 6.42062L8.58332 8.34198V1.58333C8.58332 1.42862 8.52186 1.28025 8.41247 1.17085C8.30307 1.06146 8.1547 1 7.99999 1C7.84528 1 7.69691 1.06146 7.58751 1.17085C7.47811 1.28025 7.41666 1.42862 7.41666 1.58333V8.34198L5.49603 6.42062C5.38657 6.31117 5.23812 6.24968 5.08332 6.24968C4.92853 6.24968 4.78007 6.31117 4.67061 6.42062C4.56116 6.53008 4.49966 6.67854 4.49966 6.83333C4.49966 6.98813 4.56116 7.13658 4.67061 7.24604L7.58728 10.1627Z" fill="black"/>
<path d="M2 15V12.75C2 12.3358 2.41328 12 2.92308 12H13.0769C13.5867 12 14 12.3358 14 12.75V15" stroke="black" stroke-width="1.3" stroke-linecap="round"/>
</svg>
