<svg width="32" height="32" viewBox="0 0 32 32" fill="none" xmlns="http://www.w3.org/2000/svg">
<mask id="mask0_4473_2663" style="mask-type:luminance" maskUnits="userSpaceOnUse" x="0" y="0" width="32" height="32">
<path d="M0 0H32V32H0V0Z" fill="white"/>
</mask>
<g mask="url(#mask0_4473_2663)">
<path d="M8.42546 14.5866C5.00076 14.5866 2.23764 11.8235 2.23764 8.39876C2.23764 4.97405 5.00076 2.21094 8.42546 2.21094C11.8502 2.21094 14.6133 4.97405 14.6133 8.39876C14.6133 11.7845 11.8112 14.5866 8.42546 14.5866ZM8.42546 4.54596C6.28502 4.54596 4.57267 6.25832 4.57267 8.39876C4.57267 10.5392 6.28502 12.2515 8.42546 12.2515C10.5659 12.2515 12.2783 10.5392 12.2783 8.39876C12.2783 6.25832 10.527 4.54596 8.42546 4.54596Z" fill="#00A700"/>
<path d="M3.11419 15.6973C2.59205 15.6973 2.03261 15.8837 1.62236 16.294L0.615378 17.301C-0.205126 18.1215 -0.205126 19.4641 0.615378 20.2846C1.02563 20.6949 1.54777 20.8814 2.1072 20.8814C2.62934 20.8814 3.18878 20.6949 3.59903 20.2846L4.60601 19.2776C5.42652 18.4571 5.42652 17.1145 4.60601 16.294C4.19576 15.921 3.67362 15.6973 3.11419 15.6973Z" fill="#00A700"/>
<path d="M1.88738 30.2154C1.22579 30.2154 0.719864 29.7095 0.719864 29.0479V23.1714C0.719864 22.5098 1.22579 22.0039 1.88738 22.0039C2.54897 22.0039 3.05489 22.5098 3.05489 23.1714V29.0479C3.05489 29.7095 2.54897 30.2154 1.88738 30.2154Z" fill="#00A700"/>
<path d="M15.7813 30.2138C15.1197 30.2138 14.6138 29.7078 14.6138 29.0462V20.1731C14.6138 19.7061 14.4192 18.3051 13.7187 17.7992C13.135 17.41 12.5512 17.2155 12.1231 17.1376C11.0724 17.5657 9.98269 17.7992 8.85409 17.7992C8.27033 17.7992 7.60874 17.7992 6.86932 17.5657C6.24665 17.3711 5.93531 16.7095 6.12989 16.0869C6.32448 15.4642 6.98607 15.1528 7.60874 15.3474C7.959 15.4642 8.30925 15.4642 8.85409 15.4642C9.74919 15.4642 10.6443 15.2696 11.4615 14.8804C11.6561 14.7637 11.8896 14.7637 12.1231 14.7637C12.8236 14.8804 13.9133 15.1528 14.9641 15.8534C16.871 17.1376 16.9099 19.8618 16.9099 20.1731V29.0462C16.9489 29.7078 16.404 30.2138 15.7813 30.2138Z" fill="#00A700"/>
<path d="M23.5318 14.3756C20.1071 14.3756 17.344 11.6125 17.344 8.18782C17.344 4.76311 20.1461 2 23.5318 2C26.9176 2 29.7197 4.76311 29.7197 8.18782C29.7197 11.6125 26.9565 14.3756 23.5318 14.3756ZM23.5318 4.33503C21.3914 4.33503 19.6791 6.04738 19.6791 8.18782C19.6791 10.3283 21.3914 12.0406 23.5318 12.0406C25.6723 12.0406 27.3846 10.3283 27.3846 8.18782C27.3846 6.04738 25.6723 4.33503 23.5318 4.33503Z" fill="#00A700"/>
<path d="M28.9689 15.7754C28.4433 15.7754 27.9177 15.9631 27.5047 16.3761C26.7163 17.1645 26.7163 18.4785 27.5047 19.3044L28.4808 20.2805C28.8938 20.6935 29.4194 20.8812 29.945 20.8812C30.4706 20.8812 30.9962 20.6935 31.4091 20.2805C32.1975 19.4921 32.1975 18.1781 31.4091 17.3522L30.433 16.3761C30.0201 16.0006 29.4945 15.7754 28.9689 15.7754Z" fill="#00A700"/>
<path d="M22.5138 17.7986C20.6847 17.7986 18.3497 16.7089 17.1433 15.3079C16.7541 14.8409 15.4309 15.1133 14.6915 15.6582C13.9521 16.203 12.7067 16.8646 12.551 16.9424C11.9673 17.2148 11.2668 16.9813 10.9944 16.4365C10.7219 15.8527 10.9554 15.1522 11.5003 14.8798C11.8505 14.7241 12.7845 14.2182 13.2516 13.8291C14.6915 12.7394 17.4546 12.1167 18.8945 13.8291C19.6729 14.7631 21.4631 15.5803 22.5917 15.5025C23.1365 15.4636 23.7203 15.4247 24.3818 15.1522C24.9656 14.9187 25.6661 15.1912 25.8996 15.7749C26.1331 16.3587 25.8607 17.0592 25.2769 17.2927C24.2651 17.7208 23.37 17.7597 22.7084 17.7986C22.6695 17.7986 22.5917 17.7986 22.5138 17.7986Z" fill="#00A700"/>
<path d="M29.6355 30.2154C28.9739 30.2154 28.468 29.7095 28.468 29.0479V23.1714C28.468 22.5098 28.9739 22.0039 29.6355 22.0039C30.2971 22.0039 30.803 22.5098 30.803 23.1714V29.0479C30.803 29.7095 30.2581 30.2154 29.6355 30.2154Z" fill="#00A700"/>
<path d="M24.8253 30.2145C24.1637 30.2145 23.6577 29.7086 23.6577 29.047V24.4937C23.6577 23.8321 24.1637 23.3262 24.8253 23.3262C25.4868 23.3262 25.9928 23.8321 25.9928 24.4937V29.047C25.9928 29.7086 25.4479 30.2145 24.8253 30.2145Z" fill="#00A700"/>
</g>
</svg>
