<svg viewBox="0 0 34 34" fill="none" xmlns="http://www.w3.org/2000/svg">
<path d="M16.9999 31.875C16.5816 31.875 16.1699 31.7488 15.8046 31.5031C13.3077 29.8098 9.68196 27.1867 7.07883 24.0125C4.42258 20.7785 3.14758 17.4516 3.18743 13.8523C3.22727 9.72852 6.54094 6.375 10.5652 6.375C13.7593 6.375 15.8777 8.33398 16.9999 9.76172C18.1222 8.33398 20.2406 6.375 23.4347 6.375C27.4589 6.375 30.7659 9.72852 30.8124 13.8523C30.8456 17.4516 29.5773 20.7785 26.921 24.0125C24.3179 27.1867 20.6921 29.8098 18.1952 31.5031C17.83 31.7555 17.4183 31.875 16.9999 31.875ZM10.5652 8.5C7.70305 8.5 5.34563 10.9105 5.31243 13.8789C5.23938 20.825 11.1827 25.8055 16.9999 29.75C22.8171 25.7988 28.7605 20.825 28.6874 13.8789C28.6542 10.9172 26.3034 8.5 23.4347 8.5C19.8488 8.5 17.9628 12.1258 17.9495 12.1656C17.7702 12.5242 17.405 12.75 16.9999 12.75C16.5949 12.75 16.2296 12.5242 16.0503 12.159C16.0304 12.1258 14.1445 8.5 10.5652 8.5Z" fill="currentColor"/>
</svg>
