<svg width="16" height="16" viewBox="0 0 16 16" fill="none" xmlns="http://www.w3.org/2000/svg">
<path fill-rule="evenodd" clip-rule="evenodd" d="M8.69287 1.27027L10.5 3.00015V1.99994C10.5 1.7238 10.7239 1.49994 11 1.49994H12.5C12.7761 1.49994 13 1.7238 13 1.99994V5.39328L15.3457 7.63875C15.5452 7.82971 15.5521 8.14621 15.3612 8.34569C15.1702 8.54517 14.8537 8.55208 14.6543 8.36113L14 7.73485L14 13.9999C14 14.2652 13.8946 14.5195 13.7071 14.7071C13.5196 14.8946 13.2652 14.9999 13 14.9999H10C9.72386 14.9999 9.5 14.7761 9.5 14.4999V10.2499C9.5 10.1836 9.47366 10.1201 9.42678 10.0732C9.37989 10.0263 9.3163 9.99994 9.25 9.99994L6.75 9.99994C6.6837 9.99994 6.62011 10.0263 6.57322 10.0732C6.52634 10.1201 6.5 10.1836 6.5 10.2499L6.5 14.4999C6.5 14.7761 6.27614 14.9999 6 14.9999H3C2.73478 14.9999 2.48043 14.8946 2.29289 14.7071C2.10536 14.5195 2 14.2652 2 13.9999L2 7.73485L1.34575 8.36113C1.14627 8.55208 0.829764 8.54517 0.638812 8.34569C0.44786 8.14621 0.454772 7.82971 0.654252 7.63875L7.30756 1.26986C7.51152 1.06308 7.78947 1.00011 8.00195 1.00049C8.21356 1.00087 8.49052 1.06435 8.69287 1.27027ZM3 6.7776L3 13.9999H5.5L5.5 10.2499C5.5 9.91842 5.6317 9.60048 5.86612 9.36606C6.10054 9.13164 6.41848 8.99994 6.75 8.99994H9.25C9.58152 8.99994 9.89946 9.13164 10.1339 9.36606C10.3683 9.60048 10.5 9.91842 10.5 10.2499V13.9999H13L13 6.7776L8.01002 2.00092C8.00697 2.00066 8.00366 2.00049 8.00016 2.00049C7.99654 2.00048 7.99312 2.00064 7.98999 2.00092L3 6.7776ZM12 4.43603V2.49994H11.5V3.9574L12 4.43603Z" fill="white"/>
</svg>
