<svg width="16" height="16" viewBox="0 0 16 16" fill="none" xmlns="http://www.w3.org/2000/svg">
<path d="M13.4365 8.4438C13.4885 8.49583 13.5298 8.5576 13.5579 8.62558C13.5861 8.69356 13.6006 8.76642 13.6006 8.84C13.6006 8.91358 13.5861 8.98644 13.5579 9.05442C13.5298 9.1224 13.4885 9.18417 13.4365 9.2362C13.3844 9.28823 13.3227 9.3295 13.2547 9.35766C13.1867 9.38582 13.1139 9.40031 13.0403 9.40031C12.9667 9.40031 12.8938 9.38582 12.8259 9.35766C12.7579 9.3295 12.6961 9.28823 12.6441 9.2362L8.56027 5.1517L8.56027 14.44C8.56027 14.5885 8.50127 14.731 8.39625 14.836C8.29123 14.941 8.14879 15 8.00027 15C7.85175 15 7.70931 14.941 7.60429 14.836C7.49927 14.731 7.44027 14.5885 7.44027 14.44L7.44027 5.1517L3.35647 9.2362C3.30444 9.28823 3.24268 9.3295 3.1747 9.35766C3.10672 9.38582 3.03385 9.40031 2.96027 9.40031C2.88669 9.40031 2.81383 9.38582 2.74585 9.35766C2.67787 9.3295 2.6161 9.28823 2.56407 9.2362C2.51204 9.18417 2.47077 9.1224 2.44261 9.05442C2.41445 8.98644 2.39996 8.91358 2.39996 8.84C2.39996 8.76642 2.41445 8.69356 2.44261 8.62558C2.47077 8.5576 2.51204 8.49583 2.56407 8.4438L7.60407 3.4038C7.65608 3.35173 7.71784 3.31043 7.78583 3.28225C7.85381 3.25407 7.92668 3.23956 8.00027 3.23956C8.07387 3.23956 8.14674 3.25407 8.21472 3.28225C8.2827 3.31043 8.34446 3.35173 8.39647 3.4038L13.4365 8.4438ZM14.1603 1L1.84027 1C1.69175 1 1.54931 1.059 1.44429 1.16402C1.33927 1.26904 1.28027 1.41148 1.28027 1.56C1.28027 1.70852 1.33927 1.85096 1.44429 1.95598C1.54931 2.061 1.69175 2.12 1.84027 2.12L14.1603 2.12C14.3088 2.12 14.4512 2.061 14.5563 1.95598C14.6613 1.85096 14.7203 1.70852 14.7203 1.56C14.7203 1.41148 14.6613 1.26904 14.5563 1.16402C14.4512 1.059 14.3088 1 14.1603 1Z" fill="currentColor"/>
</svg>
