<svg viewBox="0 0 20 20" fill="none" xmlns="http://www.w3.org/2000/svg">
<path d="M10.0001 5.00004C9.382 5.00004 8.7778 5.18332 8.26389 5.5267C7.74999 5.87008 7.34944 6.35815 7.11292 6.92917C6.87639 7.5002 6.8145 8.12854 6.93508 8.73473C7.05566 9.34093 7.35329 9.89776 7.79034 10.3348C8.22738 10.7718 8.78421 11.0695 9.39041 11.1901C9.9966 11.3106 10.6249 11.2487 11.196 11.0122C11.767 10.7757 12.2551 10.3752 12.5984 9.86124C12.9418 9.34733 13.1251 8.74314 13.1251 8.12507C13.1251 7.29626 12.7959 6.5014 12.2098 5.91534C11.6237 5.32928 10.8289 5.00004 10.0001 5.00004ZM10.0001 10.0001C9.62923 10.0001 9.26671 9.89012 8.95836 9.68409C8.65002 9.47806 8.40969 9.18522 8.26778 8.84261C8.12586 8.49999 8.08873 8.12299 8.16108 7.75927C8.23343 7.39555 8.412 7.06146 8.67423 6.79923C8.93646 6.537 9.27055 6.35843 9.63427 6.28608C9.99799 6.21373 10.375 6.25086 10.7176 6.39278C11.0602 6.53469 11.3531 6.77502 11.5591 7.08336C11.7651 7.39171 11.8751 7.75423 11.8751 8.12507C11.8751 8.62235 11.6775 9.09927 11.3259 9.45091C10.9743 9.80254 10.4974 10.0001 10.0001 10.0001ZM10.0001 1.25C8.17732 1.25207 6.42982 1.97707 5.14094 3.26594C3.85207 4.55482 3.12707 6.30232 3.125 8.12507C3.125 10.5782 4.25861 13.1782 6.40628 15.6447C7.37131 16.7592 8.45744 17.7628 9.6446 18.6369C9.74969 18.7105 9.87488 18.75 10.0032 18.75C10.1315 18.75 10.2567 18.7105 10.3618 18.6369C11.5468 17.7624 12.6308 16.7588 13.5939 15.6447C15.7384 13.1782 16.8751 10.5782 16.8751 8.12507C16.8731 6.30232 16.1481 4.55482 14.8592 3.26594C13.5703 1.97707 11.8228 1.25207 10.0001 1.25ZM10.0001 17.3439C8.70865 16.3283 4.37501 12.5978 4.37501 8.12507C4.37501 6.63321 4.96765 5.20246 6.02255 4.14755C7.07746 3.09265 8.50821 2.50001 10.0001 2.50001C11.4919 2.50001 12.9227 3.09265 13.9776 4.14755C15.0325 5.20246 15.6251 6.63321 15.6251 8.12507C15.6251 12.5962 11.2915 16.3283 10.0001 17.3439Z" fill="currentColor"/>
</svg>
