<svg width="16" height="16" viewBox="0 0 16 16" fill="none" xmlns="http://www.w3.org/2000/svg">
<g clip-path="url(#clip0_18057_108887)">
<path d="M14.5108 3.43115C15.335 3.43115 16.0019 4.09812 16.002 4.92236V9.89404C16.002 10.7183 15.3351 11.3853 14.5108 11.3853H9.83989L10.4815 12.9556L7.66216 11.3853H1.49321C0.668984 11.3853 0.00200002 10.7183 0.00200002 9.89404V4.92236C-0.00448403 4.10471 0.662226 3.4312 1.48638 3.43115H14.5108ZM6.89653 4.31592C6.7079 4.32893 6.56441 4.41993 6.46684 4.60205C6.06362 5.3371 5.77754 6.52724 5.60845 8.1792C5.36128 7.55479 5.15289 6.81969 4.99028 5.95459C4.91873 5.57093 4.74321 5.38921 4.45708 5.40869C4.26196 5.4217 4.09888 5.5512 3.9688 5.79834L2.54497 8.51123C2.31079 7.56808 2.08937 6.41654 1.88774 5.05713C1.84223 4.71906 1.65374 4.56254 1.32231 4.58838C1.18586 4.59812 1.07464 4.63759 0.989305 4.7085L0.912156 4.79053C0.821185 4.90756 0.7817 5.05707 0.807664 5.22607C1.19136 7.66476 1.54923 9.31036 1.88091 10.1626C2.01099 10.4748 2.16134 10.6248 2.33696 10.6118C2.61008 10.5921 2.93483 10.2146 3.31841 9.47998C3.52004 9.06371 3.83312 8.43947 4.25591 7.60693C4.60704 8.83594 5.08772 9.75958 5.69243 10.3774C5.86154 10.5531 6.03796 10.6317 6.20708 10.6187C6.35652 10.6056 6.47381 10.5273 6.5518 10.3843C6.61684 10.2607 6.64294 10.1172 6.62993 9.95459C6.59094 9.36277 6.64903 8.53697 6.81157 7.47705C6.98067 6.38437 7.18876 5.59673 7.44243 5.12842C7.49442 5.03089 7.51436 4.93296 7.50786 4.81592C7.49476 4.66652 7.42917 4.54327 7.30571 4.4458C7.18224 4.34834 7.04597 4.30301 6.89653 4.31592ZM9.4268 5.01807C8.80245 5.01807 8.29524 5.34332 7.89848 5.99365C7.56029 6.54646 7.39071 7.15782 7.39067 7.82764C7.39067 8.32847 7.49503 8.75796 7.70317 9.11572C7.93727 9.52535 8.28162 9.773 8.74321 9.87061C8.86676 9.89662 8.98422 9.90966 9.09477 9.90967C9.72553 9.90967 10.2329 9.58423 10.6231 8.93408C10.9613 8.3748 11.1308 7.76303 11.1309 7.09326C11.1309 6.58606 11.0264 6.16322 10.8184 5.81201C10.5843 5.40224 10.2327 5.1547 9.77739 5.05713C9.65403 5.03118 9.5372 5.01808 9.4268 5.01807ZM13.4981 5.01807C12.8738 5.01816 12.3665 5.34329 11.9698 5.99365C11.6316 6.54645 11.463 7.15783 11.4629 7.82764C11.4629 8.32842 11.5664 8.75798 11.7745 9.11572C12.0086 9.5255 12.3537 9.77304 12.8155 9.87061C12.939 9.8966 13.0565 9.90967 13.167 9.90967C13.7977 9.90952 14.3052 9.58423 14.6954 8.93408C15.0335 8.3748 15.2021 7.76303 15.2022 7.09326C15.2087 6.58617 15.0986 6.16317 14.8907 5.81201C14.6565 5.40226 14.3114 5.15471 13.8497 5.05713C13.7261 5.03111 13.6087 5.01807 13.4981 5.01807ZM9.53716 6.11768C9.69323 6.15022 9.8234 6.2869 9.92095 6.54053C9.99889 6.74202 10.0381 6.94383 10.0381 7.13232C10.0446 7.30115 10.0247 7.46341 9.99223 7.61279C9.90119 8.04202 9.7387 8.36099 9.49809 8.57568C9.3096 8.74467 9.13424 8.81603 8.97173 8.78369C8.81562 8.75117 8.6855 8.61451 8.58794 8.36084C8.50995 8.15929 8.47075 7.95759 8.47075 7.76904C8.47077 7.60655 8.48317 7.44392 8.51567 7.29443C8.57418 7.02794 8.68498 6.76802 8.8604 6.521C9.07504 6.20228 9.30298 6.07214 9.53716 6.11768ZM13.6153 6.11768C13.7714 6.1502 13.9015 6.28686 13.9991 6.54053C14.077 6.74204 14.1163 6.94381 14.1163 7.13232C14.1162 7.30116 14.1028 7.4634 14.0704 7.61279C13.9793 8.04207 13.8169 8.36099 13.5762 8.57568C13.3877 8.74472 13.2124 8.8161 13.0499 8.78369C12.8937 8.75117 12.7636 8.61451 12.6661 8.36084C12.5881 8.1593 12.5489 7.95758 12.5489 7.76904C12.5489 7.60655 12.5613 7.44392 12.5938 7.29443C12.6523 7.02795 12.7631 6.76801 12.9385 6.521C13.1531 6.20231 13.3811 6.07218 13.6153 6.11768Z" fill="black"/>
</g>
<defs>
<clipPath id="clip0_18057_108887">
<rect width="16" height="16" fill="white"/>
</clipPath>
</defs>
</svg>
